<?xml version="1.0" encoding="UTF-8" standalone="no"?><svg xmlns="http://www.w3.org/2000/svg" xmlns:xlink="http://www.w3.org/1999/xlink" contentScriptType="application/ecmascript" contentStyleType="text/css" height="517px" preserveAspectRatio="none" style="width:776px;height:517px;" version="1.1" viewBox="0 0 776 517" width="776px" zoomAndPan="magnify"><defs><filter height="300%" id="f1ytlry8zoo6x" width="300%" x="-1" y="-1"><feGaussianBlur result="blurOut" stdDeviation="2.0"/><feColorMatrix in="blurOut" result="blurOut2" type="matrix" values="0 0 0 0 0 0 0 0 0 0 0 0 0 0 0 0 0 0 .4 0"/><feOffset dx="4.0" dy="4.0" in="blurOut2" result="blurOut3"/><feBlend in="SourceGraphic" in2="blurOut3" mode="normal"/></filter></defs><g><ellipse cx="163.5" cy="18" fill="#000000" filter="url(#f1ytlry8zoo6x)" rx="10" ry="10" style="stroke: none; stroke-width: 1.0;"/><rect fill="#FEFECE" filter="url(#f1ytlry8zoo6x)" height="148" rx="12.5" ry="12.5" style="stroke: #A80036; stroke-width: 1.5;" width="315" x="6" y="68"/><svg x="16" y="78"><defs/><g><path d="M11.5,10.0625 C10.67,10.0625 10,10.7325 10,11.5625 C10,12.3925 10.67,13.0625 11.5,13.0625 L12,13.0625 L12,14.0625 L11.5,14.0625 C10.67,14.0625 10,14.7325 10,15.5625 C10,16.3925 10.67,17.0625 11.5,17.0625 C12.33,17.0625 13,16.3925 13,15.5625 L13,15.0625 L14,15.0625 L14,15.5625 C14,16.3925 14.67,17.0625 15.5,17.0625 C16.33,17.0625 17,16.3925 17,15.5625 C17,14.7325 16.33,14.0625 15.5,14.0625 L15,14.0625 L15,13.0625 L15.5,13.0625 C16.33,13.0625 17,12.3925 17,11.5625 C17,10.7325 16.33,10.0625 15.5,10.0625 C14.67,10.0625 14,10.7325 14,11.5625 L14,12.0625 L13,12.0625 L13,11.5625 C13,10.7325 12.33,10.0625 11.5,10.0625 M11.5,11.0625 C11.78,11.0625 12,11.2825 12,11.5625 L12,12.0625 L11.5,12.0625 C11.22,12.0625 11,11.8425 11,11.5625 C11,11.2825 11.22,11.0625 11.5,11.0625 M15.5,11.0625 C15.78,11.0625 16,11.2825 16,11.5625 C16,11.8425 15.78,12.0625 15.5,12.0625 L15,12.0625 L15,11.5625 C15,11.2825 15.22,11.0625 15.5,11.0625 M13,13.0625 L14,13.0625 L14,14.0625 L13,14.0625 L13,13.0625 M11.5,15.0625 L12,15.0625 L12,15.5625 C12,15.8425 11.78,16.0625 11.5,16.0625 C11.22,16.0625 11,15.8425 11,15.5625 C11,15.2825 11.22,15.0625 11.5,15.0625 M15,15.0625 L15.5,15.0625 C15.78,15.0625 16,15.2825 16,15.5625 C16,15.8425 15.78,16.0625 15.5,16.0625 C15.22,16.0625 15,15.8425 15,15.5625 L15,15.0625 " fill="#000000" style="stroke: ; stroke-width: 0.0; stroke-dasharray: ;"/><text fill="#000000" font-family="sans-serif" font-size="12" font-weight="bold" lengthAdjust="spacingAndGlyphs" textLength="60" x="22" y="18.1328">Действие</text><line style="stroke: #000000; stroke-width: 1.0;" x1="7" x2="7" y1="7" y2="21.0625"/><line style="stroke: #000000; stroke-width: 1.0;" x1="7" x2="85" y1="7" y2="7"/><line style="stroke: #000000; stroke-width: 1.0;" x1="85" x2="85" y1="7" y2="21.0625"/><line style="stroke: #000000; stroke-width: 1.0;" x1="85" x2="95" y1="21.0625" y2="21.0625"/><path d="M102,10.0625 C100.895,10.0625 100,11.1815 100,12.5625 C100,13.9435 100.895,15.0625 102,15.0625 C103.105,15.0625 104,13.9435 104,12.5625 C104,11.1815 103.105,10.0625 102,10.0625 M99.906,15.0625 C98.836,15.1025 98,15.9825 98,17.0625 L98,18.0625 L106,18.0625 L106,17.0625 C106,15.9825 105.164,15.1025 104.094,15.0625 C103.554,15.6725 102.81,16.0625 102,16.0625 C101.19,16.0625 100.446,15.6725 99.906,15.0625 " fill="#000000" style="stroke: ; stroke-width: 0.0; stroke-dasharray: ;"/><text fill="#000000" font-family="sans-serif" font-size="12" lengthAdjust="spacingAndGlyphs" textLength="39" x="110" y="18.1328">Анкета</text><line style="stroke: #000000; stroke-width: 1.0;" x1="95" x2="95" y1="7" y2="21.0625"/><line style="stroke: #000000; stroke-width: 1.0;" x1="95" x2="152" y1="7" y2="7"/><line style="stroke: #000000; stroke-width: 1.0;" x1="152" x2="152" y1="7" y2="21.0625"/><line style="stroke: #000000; stroke-width: 1.0;" x1="152" x2="162" y1="21.0625" y2="21.0625"/><path d="M165.344,10.0625 A0.502,0.502 0 0 0 165.5,11.0625 L167,11.0625 L167.094,11.3125 L167.5,12.5625 L167.906,13.8125 C167.946,13.9425 168.11,14.0625 168.25,14.0625 L171.75,14.0625 C171.89,14.0625 172.054,13.9425 172.094,13.8125 L172.907,11.2815 C172.947,11.1615 172.891,11.0625 172.751,11.0625 L168.313,11.0625 L167.938,10.3435 A0.5,0.5 0 0 0 167.5,10.0625 L165.5,10.0625 A0.5,0.5 0 0 0 165.406,10.0625 A0.502,0.502 0 0 0 165.343,10.0625 M168.499,15.0625 C168.223,15.0625 167.999,15.2865 167.999,15.5625 C167.999,15.8385 168.223,16.0625 168.499,16.0625 C168.775,16.0625 168.999,15.8385 168.999,15.5625 C168.999,15.2865 168.775,15.0625 168.499,15.0625 M171.499,15.0625 C171.223,15.0625 170.999,15.2865 170.999,15.5625 C170.999,15.8385 171.223,16.0625 171.499,16.0625 C171.775,16.0625 171.999,15.8385 171.999,15.5625 C171.999,15.2865 171.775,15.0625 171.499,15.0625 " fill="#000000" style="stroke: ; stroke-width: 0.0; stroke-dasharray: ;"/><text fill="#000000" font-family="sans-serif" font-size="12" lengthAdjust="spacingAndGlyphs" textLength="48" x="177" y="18.1328">Корзина</text><line style="stroke: #000000; stroke-width: 1.0;" x1="162" x2="162" y1="7" y2="21.0625"/><line style="stroke: #000000; stroke-width: 1.0;" x1="162" x2="228" y1="7" y2="7"/><line style="stroke: #000000; stroke-width: 1.0;" x1="228" x2="228" y1="7" y2="21.0625"/><line style="stroke: #000000; stroke-width: 1.0;" x1="228" x2="238" y1="21.0625" y2="21.0625"/><text fill="#000000" font-family="sans-serif" font-size="12" lengthAdjust="spacingAndGlyphs" textLength="34" x="240" y="18.1328">Досье</text><line style="stroke: #000000; stroke-width: 1.0;" x1="238" x2="238" y1="7" y2="21.0625"/><line style="stroke: #000000; stroke-width: 1.0;" x1="238" x2="277" y1="7" y2="7"/><line style="stroke: #000000; stroke-width: 1.0;" x1="277" x2="277" y1="7" y2="21.0625"/><line style="stroke: #000000; stroke-width: 1.0;" x1="277" x2="287" y1="21.0625" y2="21.0625"/><text fill="#000000" font-family="sans-serif" font-size="12" lengthAdjust="spacingAndGlyphs" textLength="19" x="9" y="36.1953">VIN</text><text fill="#000000" font-family="sans-serif" font-size="12" lengthAdjust="spacingAndGlyphs" textLength="63" x="95" y="36.1953">123459789</text><line style="stroke: #000000; stroke-width: 1.0;" x1="93" x2="216" y1="39.125" y2="39.125"/><line style="stroke: #000000; stroke-width: 1.0;" x1="93" x2="93" y1="36.125" y2="38.125"/><line style="stroke: #000000; stroke-width: 1.0;" x1="216" x2="216" y1="36.125" y2="38.125"/><text fill="#000000" font-family="sans-serif" font-size="12" lengthAdjust="spacingAndGlyphs" textLength="81" x="9" y="54.2578">Тип проверки:</text><rect fill="#EEEEEE" height="17.0625" style="stroke: #000000; stroke-width: 1.0;" width="103" x="92" y="43.125"/><text fill="#000000" font-family="sans-serif" font-size="12" lengthAdjust="spacingAndGlyphs" textLength="76" x="94" y="56.2578">Расширенная</text><line style="stroke: #000000; stroke-width: 1.0;" x1="184" x2="184" y1="43.125" y2="60.1875"/><polygon fill="#000000" points="187,49.125,193,49.125,190,55.1875" style="stroke: #000000; stroke-width: 1.0;"/><text fill="#000000" font-family="sans-serif" font-size="12" lengthAdjust="spacingAndGlyphs" textLength="95" x="28" y="75.3203">Проверка ГИБДД</text><rect fill="none" height="10" style="stroke: #000000; stroke-width: 1.5;" width="10" x="10" y="66.2188"/><polygon fill="#000000" points="11,70.1875,14,73.1875,21,64.1875,14,71.1875" style="stroke: #000000; stroke-width: 1.5;"/><text fill="#000000" font-family="sans-serif" font-size="12" lengthAdjust="spacingAndGlyphs" textLength="111" x="28" y="91.3828">Проверка Росреестр</text><rect fill="none" height="10" style="stroke: #000000; stroke-width: 1.5;" width="10" x="10" y="82.2813"/><rect fill="#EEEEEE" height="18.0625" rx="5" ry="5" style="stroke: #000000; stroke-width: 2.5;" width="76" x="9.5" y="99.8125"/><text fill="#000000" font-family="sans-serif" font-size="12" lengthAdjust="spacingAndGlyphs" textLength="61" x="17" y="112.9453">Завершить</text><line style="stroke: #000000; stroke-width: 1.0;" x1="5" x2="289" y1="5" y2="5"/><line style="stroke: #000000; stroke-width: 1.0;" x1="5" x2="289" y1="122.375" y2="122.375"/><line style="stroke: #000000; stroke-width: 1.0;" x1="5" x2="5" y1="5" y2="122.375"/><line style="stroke: #000000; stroke-width: 1.0;" x1="289" x2="289" y1="5" y2="122.375"/></g></svg><path d="M341,122 L341,138 L321.2139,142 L341,146 L341,162.4688 A0,0 0 0 0 341,162.4688 L592,162.4688 A0,0 0 0 0 592,162.4688 L592,132 L582,122 L341,122 A0,0 0 0 0 341,122 " fill="#FBFB77" filter="url(#f1ytlry8zoo6x)" style="stroke: #A80036; stroke-width: 1.0;"/><path d="M582,122 L582,132 L592,132 L582,122 " fill="#FBFB77" style="stroke: #A80036; stroke-width: 1.0;"/><text fill="#000000" font-family="sans-serif" font-size="13" lengthAdjust="spacingAndGlyphs" textLength="157" x="347" y="139.0605">Основной экран сервиса,</text><text fill="#000000" font-family="sans-serif" font-size="13" lengthAdjust="spacingAndGlyphs" textLength="230" x="347" y="154.2949">где пользователь выполняет работу</text><rect fill="#FEFECE" filter="url(#f1ytlry8zoo6x)" height="98" rx="12.5" ry="12.5" style="stroke: #A80036; stroke-width: 1.5;" width="315" x="6" y="257.5"/><svg x="16" y="267.5"><defs/><g><path d="M10.5,9.0625 C9.67,9.0625 9,9.7325 9,10.5625 C9,11.3925 9.67,12.0625 10.5,12.0625 L11,12.0625 L11,13.0625 L10.5,13.0625 C9.67,13.0625 9,13.7325 9,14.5625 C9,15.3925 9.67,16.0625 10.5,16.0625 C11.33,16.0625 12,15.3925 12,14.5625 L12,14.0625 L13,14.0625 L13,14.5625 C13,15.3925 13.67,16.0625 14.5,16.0625 C15.33,16.0625 16,15.3925 16,14.5625 C16,13.7325 15.33,13.0625 14.5,13.0625 L14,13.0625 L14,12.0625 L14.5,12.0625 C15.33,12.0625 16,11.3925 16,10.5625 C16,9.7325 15.33,9.0625 14.5,9.0625 C13.67,9.0625 13,9.7325 13,10.5625 L13,11.0625 L12,11.0625 L12,10.5625 C12,9.7325 11.33,9.0625 10.5,9.0625 M10.5,10.0625 C10.78,10.0625 11,10.2825 11,10.5625 L11,11.0625 L10.5,11.0625 C10.22,11.0625 10,10.8425 10,10.5625 C10,10.2825 10.22,10.0625 10.5,10.0625 M14.5,10.0625 C14.78,10.0625 15,10.2825 15,10.5625 C15,10.8425 14.78,11.0625 14.5,11.0625 L14,11.0625 L14,10.5625 C14,10.2825 14.22,10.0625 14.5,10.0625 M12,12.0625 L13,12.0625 L13,13.0625 L12,13.0625 L12,12.0625 M10.5,14.0625 L11,14.0625 L11,14.5625 C11,14.8425 10.78,15.0625 10.5,15.0625 C10.22,15.0625 10,14.8425 10,14.5625 C10,14.2825 10.22,14.0625 10.5,14.0625 M14,14.0625 L14.5,14.0625 C14.78,14.0625 15,14.2825 15,14.5625 C15,14.8425 14.78,15.0625 14.5,15.0625 C14.22,15.0625 14,14.8425 14,14.5625 L14,14.0625 " fill="#000000" style="stroke: ; stroke-width: 0.0; stroke-dasharray: ;"/><text fill="#000000" font-family="sans-serif" font-size="12" lengthAdjust="spacingAndGlyphs" textLength="53" x="21" y="17.1328">Действие</text><line style="stroke: #000000; stroke-width: 1.0;" x1="6" x2="6" y1="6" y2="20.0625"/><line style="stroke: #000000; stroke-width: 1.0;" x1="6" x2="77" y1="6" y2="6"/><line style="stroke: #000000; stroke-width: 1.0;" x1="77" x2="77" y1="6" y2="20.0625"/><line style="stroke: #000000; stroke-width: 1.0;" x1="77" x2="87" y1="20.0625" y2="20.0625"/><path d="M94,9.0625 C92.895,9.0625 92,10.1815 92,11.5625 C92,12.9435 92.895,14.0625 94,14.0625 C95.105,14.0625 96,12.9435 96,11.5625 C96,10.1815 95.105,9.0625 94,9.0625 M91.906,14.0625 C90.836,14.1025 90,14.9825 90,16.0625 L90,17.0625 L98,17.0625 L98,16.0625 C98,14.9825 97.164,14.1025 96.094,14.0625 C95.554,14.6725 94.81,15.0625 94,15.0625 C93.19,15.0625 92.446,14.6725 91.906,14.0625 " fill="#000000" style="stroke: ; stroke-width: 0.0; stroke-dasharray: ;"/><text fill="#000000" font-family="sans-serif" font-size="12" font-weight="bold" lengthAdjust="spacingAndGlyphs" textLength="44" x="102" y="17.1328">Анкета</text><line style="stroke: #000000; stroke-width: 1.0;" x1="87" x2="87" y1="6" y2="20.0625"/><line style="stroke: #000000; stroke-width: 1.0;" x1="87" x2="149" y1="6" y2="6"/><line style="stroke: #000000; stroke-width: 1.0;" x1="149" x2="149" y1="6" y2="20.0625"/><line style="stroke: #000000; stroke-width: 1.0;" x1="149" x2="159" y1="20.0625" y2="20.0625"/><path d="M162.344,9.0625 A0.502,0.502 0 0 0 162.5,10.0625 L164,10.0625 L164.094,10.3125 L164.5,11.5625 L164.906,12.8125 C164.946,12.9425 165.11,13.0625 165.25,13.0625 L168.75,13.0625 C168.89,13.0625 169.054,12.9425 169.094,12.8125 L169.907,10.2815 C169.947,10.1615 169.891,10.0625 169.751,10.0625 L165.313,10.0625 L164.938,9.3435 A0.5,0.5 0 0 0 164.5,9.0625 L162.5,9.0625 A0.5,0.5 0 0 0 162.406,9.0625 A0.502,0.502 0 0 0 162.343,9.0625 M165.499,14.0625 C165.223,14.0625 164.999,14.2865 164.999,14.5625 C164.999,14.8385 165.223,15.0625 165.499,15.0625 C165.775,15.0625 165.999,14.8385 165.999,14.5625 C165.999,14.2865 165.775,14.0625 165.499,14.0625 M168.499,14.0625 C168.223,14.0625 167.999,14.2865 167.999,14.5625 C167.999,14.8385 168.223,15.0625 168.499,15.0625 C168.775,15.0625 168.999,14.8385 168.999,14.5625 C168.999,14.2865 168.775,14.0625 168.499,14.0625 " fill="#000000" style="stroke: ; stroke-width: 0.0; stroke-dasharray: ;"/><text fill="#000000" font-family="sans-serif" font-size="12" lengthAdjust="spacingAndGlyphs" textLength="48" x="174" y="17.1328">Корзина</text><line style="stroke: #000000; stroke-width: 1.0;" x1="159" x2="159" y1="6" y2="20.0625"/><line style="stroke: #000000; stroke-width: 1.0;" x1="159" x2="225" y1="6" y2="6"/><line style="stroke: #000000; stroke-width: 1.0;" x1="225" x2="225" y1="6" y2="20.0625"/><line style="stroke: #000000; stroke-width: 1.0;" x1="225" x2="235" y1="20.0625" y2="20.0625"/><text fill="#000000" font-family="sans-serif" font-size="12" lengthAdjust="spacingAndGlyphs" textLength="34" x="237" y="17.1328">Досье</text><line style="stroke: #000000; stroke-width: 1.0;" x1="235" x2="235" y1="6" y2="20.0625"/><line style="stroke: #000000; stroke-width: 1.0;" x1="235" x2="274" y1="6" y2="6"/><line style="stroke: #000000; stroke-width: 1.0;" x1="274" x2="274" y1="6" y2="20.0625"/><line style="stroke: #000000; stroke-width: 1.0;" x1="274" x2="284" y1="20.0625" y2="20.0625"/><text fill="#0000FF" font-family="sans-serif" font-size="12" lengthAdjust="spacingAndGlyphs" textLength="282" x="7" y="34.1953">iframe src="https:///service1/questionnaire?uid=...."</text><text fill="#000000" font-family="sans-serif" font-size="12" lengthAdjust="spacingAndGlyphs" textLength="27" x="8" y="51.2578">ФИО</text><text fill="#000000" font-family="sans-serif" font-size="12" lengthAdjust="spacingAndGlyphs" textLength="131" x="101" y="51.2578">Иванов Иван Петрович</text><line style="stroke: #000000; stroke-width: 1.0;" x1="99" x2="262" y1="54.1875" y2="54.1875"/><line style="stroke: #000000; stroke-width: 1.0;" x1="99" x2="99" y1="51.1875" y2="53.1875"/><line style="stroke: #000000; stroke-width: 1.0;" x1="262" x2="262" y1="51.1875" y2="53.1875"/><text fill="#000000" font-family="sans-serif" font-size="12" lengthAdjust="spacingAndGlyphs" textLength="88" x="8" y="69.3203">Дата рождения</text><text fill="#000000" font-family="sans-serif" font-size="12" lengthAdjust="spacingAndGlyphs" textLength="62" x="101" y="69.3203">01.01.1970</text><line style="stroke: #000000; stroke-width: 1.0;" x1="99" x2="182" y1="72.25" y2="72.25"/><line style="stroke: #000000; stroke-width: 1.0;" x1="99" x2="99" y1="69.25" y2="71.25"/><line style="stroke: #000000; stroke-width: 1.0;" x1="182" x2="182" y1="69.25" y2="71.25"/></g></svg><path d="M341,256 L341,302.5 L321.1514,306.5 L341,310.5 L341,357.4063 A0,0 0 0 0 341,357.4063 L764,357.4063 A0,0 0 0 0 764,357.4063 L764,266 L754,256 L341,256 A0,0 0 0 0 341,256 " fill="#FBFB77" filter="url(#f1ytlry8zoo6x)" style="stroke: #A80036; stroke-width: 1.0;"/><path d="M754,256 L754,266 L764,266 L754,256 " fill="#FBFB77" style="stroke: #A80036; stroke-width: 1.0;"/><text fill="#000000" font-family="sans-serif" font-size="13" lengthAdjust="spacingAndGlyphs" textLength="154" x="347" y="273.0605">Для выполнения работы</text><text fill="#000000" font-family="sans-serif" font-size="13" lengthAdjust="spacingAndGlyphs" textLength="229" x="347" y="288.2949">может понадобиться анкета клиента</text><text fill="#000000" font-family="sans-serif" font-size="13" lengthAdjust="spacingAndGlyphs" textLength="257" x="347" y="303.5293">Подключим ее как iframe. Таким образом</text><text fill="#000000" font-family="sans-serif" font-size="13" lengthAdjust="spacingAndGlyphs" textLength="289" x="347" y="318.7637">мы не зависим от предметной области анкеты</text><text fill="#000000" font-family="sans-serif" font-size="13" lengthAdjust="spacingAndGlyphs" textLength="301" x="347" y="333.998">Ссылка может быть подана в контексте вызова</text><text fill="#0000FF" font-family="sans-serif" font-size="13" lengthAdjust="spacingAndGlyphs" textLength="402" x="347" y="349.2324">link ref="questionnaire" href="https:///service1/questionnaire?uid=...."</text><rect fill="#FEFECE" filter="url(#f1ytlry8zoo6x)" height="109" rx="12.5" ry="12.5" style="stroke: #A80036; stroke-width: 1.5;" width="307" x="10" y="397"/><svg x="20" y="407"><defs/><g><path d="M10.5,9.0625 C9.67,9.0625 9,9.7325 9,10.5625 C9,11.3925 9.67,12.0625 10.5,12.0625 L11,12.0625 L11,13.0625 L10.5,13.0625 C9.67,13.0625 9,13.7325 9,14.5625 C9,15.3925 9.67,16.0625 10.5,16.0625 C11.33,16.0625 12,15.3925 12,14.5625 L12,14.0625 L13,14.0625 L13,14.5625 C13,15.3925 13.67,16.0625 14.5,16.0625 C15.33,16.0625 16,15.3925 16,14.5625 C16,13.7325 15.33,13.0625 14.5,13.0625 L14,13.0625 L14,12.0625 L14.5,12.0625 C15.33,12.0625 16,11.3925 16,10.5625 C16,9.7325 15.33,9.0625 14.5,9.0625 C13.67,9.0625 13,9.7325 13,10.5625 L13,11.0625 L12,11.0625 L12,10.5625 C12,9.7325 11.33,9.0625 10.5,9.0625 M10.5,10.0625 C10.78,10.0625 11,10.2825 11,10.5625 L11,11.0625 L10.5,11.0625 C10.22,11.0625 10,10.8425 10,10.5625 C10,10.2825 10.22,10.0625 10.5,10.0625 M14.5,10.0625 C14.78,10.0625 15,10.2825 15,10.5625 C15,10.8425 14.78,11.0625 14.5,11.0625 L14,11.0625 L14,10.5625 C14,10.2825 14.22,10.0625 14.5,10.0625 M12,12.0625 L13,12.0625 L13,13.0625 L12,13.0625 L12,12.0625 M10.5,14.0625 L11,14.0625 L11,14.5625 C11,14.8425 10.78,15.0625 10.5,15.0625 C10.22,15.0625 10,14.8425 10,14.5625 C10,14.2825 10.22,14.0625 10.5,14.0625 M14,14.0625 L14.5,14.0625 C14.78,14.0625 15,14.2825 15,14.5625 C15,14.8425 14.78,15.0625 14.5,15.0625 C14.22,15.0625 14,14.8425 14,14.5625 L14,14.0625 " fill="#000000" style="stroke: ; stroke-width: 0.0; stroke-dasharray: ;"/><text fill="#000000" font-family="sans-serif" font-size="12" lengthAdjust="spacingAndGlyphs" textLength="53" x="21" y="17.1328">Действие</text><line style="stroke: #000000; stroke-width: 1.0;" x1="6" x2="6" y1="6" y2="20.0625"/><line style="stroke: #000000; stroke-width: 1.0;" x1="6" x2="77" y1="6" y2="6"/><line style="stroke: #000000; stroke-width: 1.0;" x1="77" x2="77" y1="6" y2="20.0625"/><line style="stroke: #000000; stroke-width: 1.0;" x1="77" x2="87" y1="20.0625" y2="20.0625"/><path d="M94,9.0625 C92.895,9.0625 92,10.1815 92,11.5625 C92,12.9435 92.895,14.0625 94,14.0625 C95.105,14.0625 96,12.9435 96,11.5625 C96,10.1815 95.105,9.0625 94,9.0625 M91.906,14.0625 C90.836,14.1025 90,14.9825 90,16.0625 L90,17.0625 L98,17.0625 L98,16.0625 C98,14.9825 97.164,14.1025 96.094,14.0625 C95.554,14.6725 94.81,15.0625 94,15.0625 C93.19,15.0625 92.446,14.6725 91.906,14.0625 " fill="#000000" style="stroke: ; stroke-width: 0.0; stroke-dasharray: ;"/><text fill="#000000" font-family="sans-serif" font-size="12" lengthAdjust="spacingAndGlyphs" textLength="39" x="102" y="17.1328">Анкета</text><line style="stroke: #000000; stroke-width: 1.0;" x1="87" x2="87" y1="6" y2="20.0625"/><line style="stroke: #000000; stroke-width: 1.0;" x1="87" x2="144" y1="6" y2="6"/><line style="stroke: #000000; stroke-width: 1.0;" x1="144" x2="144" y1="6" y2="20.0625"/><line style="stroke: #000000; stroke-width: 1.0;" x1="144" x2="154" y1="20.0625" y2="20.0625"/><path d="M157.344,9.0625 A0.502,0.502 0 0 0 157.5,10.0625 L159,10.0625 L159.094,10.3125 L159.5,11.5625 L159.906,12.8125 C159.946,12.9425 160.11,13.0625 160.25,13.0625 L163.75,13.0625 C163.89,13.0625 164.054,12.9425 164.094,12.8125 L164.907,10.2815 C164.947,10.1615 164.891,10.0625 164.751,10.0625 L160.313,10.0625 L159.938,9.3435 A0.5,0.5 0 0 0 159.5,9.0625 L157.5,9.0625 A0.5,0.5 0 0 0 157.406,9.0625 A0.502,0.502 0 0 0 157.343,9.0625 M160.499,14.0625 C160.223,14.0625 159.999,14.2865 159.999,14.5625 C159.999,14.8385 160.223,15.0625 160.499,15.0625 C160.775,15.0625 160.999,14.8385 160.999,14.5625 C160.999,14.2865 160.775,14.0625 160.499,14.0625 M163.499,14.0625 C163.223,14.0625 162.999,14.2865 162.999,14.5625 C162.999,14.8385 163.223,15.0625 163.499,15.0625 C163.775,15.0625 163.999,14.8385 163.999,14.5625 C163.999,14.2865 163.775,14.0625 163.499,14.0625 " fill="#000000" style="stroke: ; stroke-width: 0.0; stroke-dasharray: ;"/><text fill="#000000" font-family="sans-serif" font-size="12" font-weight="bold" lengthAdjust="spacingAndGlyphs" textLength="50" x="169" y="17.1328">Корзина</text><line style="stroke: #000000; stroke-width: 1.0;" x1="154" x2="154" y1="6" y2="20.0625"/><line style="stroke: #000000; stroke-width: 1.0;" x1="154" x2="222" y1="6" y2="6"/><line style="stroke: #000000; stroke-width: 1.0;" x1="222" x2="222" y1="6" y2="20.0625"/><line style="stroke: #000000; stroke-width: 1.0;" x1="222" x2="232" y1="20.0625" y2="20.0625"/><text fill="#000000" font-family="sans-serif" font-size="12" lengthAdjust="spacingAndGlyphs" textLength="34" x="234" y="17.1328">Досье</text><line style="stroke: #000000; stroke-width: 1.0;" x1="232" x2="232" y1="6" y2="20.0625"/><line style="stroke: #000000; stroke-width: 1.0;" x1="232" x2="271" y1="6" y2="6"/><line style="stroke: #000000; stroke-width: 1.0;" x1="271" x2="271" y1="6" y2="20.0625"/><line style="stroke: #000000; stroke-width: 1.0;" x1="271" x2="281" y1="20.0625" y2="20.0625"/><text fill="#0000FF" font-family="sans-serif" font-size="12" lengthAdjust="spacingAndGlyphs" textLength="269" x="7" y="34.1953">iframe src="https:///service2/productcart?uid=...."</text><text fill="#000000" font-family="sans-serif" font-size="12" lengthAdjust="spacingAndGlyphs" textLength="249" x="7" y="50.2578">Автомобиль Lada Kalina 2007 г.в. 300 000 р.</text><text fill="#000000" font-family="sans-serif" font-size="12" lengthAdjust="spacingAndGlyphs" textLength="222" x="7" y="66.3203">Поручительство "Брокер" ООО 50 000 р.</text><text fill="#000000" font-family="sans-serif" font-size="12" lengthAdjust="spacingAndGlyphs" textLength="211" x="7" y="82.3828">Коробка "Найдется все" ООО 7 200 р.</text></g></svg><path d="M337.5,423.5 L337.5,447.5 L317.0811,451.5 L337.5,455.5 L337.5,479.2031 A0,0 0 0 0 337.5,479.2031 L627.5,479.2031 A0,0 0 0 0 627.5,479.2031 L627.5,433.5 L617.5,423.5 L337.5,423.5 A0,0 0 0 0 337.5,423.5 " fill="#FBFB77" filter="url(#f1ytlry8zoo6x)" style="stroke: #A80036; stroke-width: 1.0;"/><path d="M617.5,423.5 L617.5,433.5 L627.5,433.5 L617.5,423.5 " fill="#FBFB77" style="stroke: #A80036; stroke-width: 1.0;"/><text fill="#000000" font-family="sans-serif" font-size="13" lengthAdjust="spacingAndGlyphs" textLength="154" x="343.5" y="440.5605">Для выполнения работы</text><text fill="#000000" font-family="sans-serif" font-size="13" lengthAdjust="spacingAndGlyphs" textLength="269" x="343.5" y="455.7949">может понадобиться подобранная корзина</text><text fill="#000000" font-family="sans-serif" font-size="13" lengthAdjust="spacingAndGlyphs" textLength="137" x="343.5" y="471.0293">Отобразим ее в iframe</text><!--MD5=[d463445c94f9202b358b3e4a259fbf5a]
link start to action--><path d="M163.5,28.1474 C163.5,36.4414 163.5,49.0196 163.5,62.8318 " fill="none" id="start-&gt;action" style="stroke: #A80036; stroke-width: 1.0;"/><polygon fill="#A80036" points="163.5,67.9707,167.5,58.9707,163.5,62.9707,159.5,58.9707,163.5,67.9707" style="stroke: #A80036; stroke-width: 1.0;"/><!--MD5=[b0b18b5361085f6308dd460b672084cd]
link action to questionnaire--><path d="M163.5,216.0692 C163.5,228.1974 163.5,240.5652 163.5,252.1037 " fill="none" id="action-&gt;questionnaire" style="stroke: #A80036; stroke-width: 1.0;"/><polygon fill="#A80036" points="163.5,257.343,167.5,248.343,163.5,252.343,159.5,248.343,163.5,257.343" style="stroke: #A80036; stroke-width: 1.0;"/><!--MD5=[13184d369bcd3c8ec6dc9b8fc915e898]
link questionnaire to productcart--><path d="M163.5,355.5904 C163.5,367.2365 163.5,379.7854 163.5,391.8445 " fill="none" id="questionnaire-&gt;productcart" style="stroke: #A80036; stroke-width: 1.0;"/><polygon fill="#A80036" points="163.5,396.9787,167.5,387.9787,163.5,391.9787,159.5,387.9787,163.5,396.9787" style="stroke: #A80036; stroke-width: 1.0;"/><!--MD5=[08884ff852a7b0117227163e1fedb9af]
@startuml
(*) - -> "
{{
salt
{+
{
{/ <b><&command> Действие | <&person> Анкета | <&cart> Корзина | Досье  }
{
{ VIN | "123459789      "
Тип проверки: | ^Расширенная^ }
[X] Проверка ГИБДД
[ ] Проверка Росреестр
}
[Завершить]
}
}

}}
" as action

note right
    Основной экран сервиса,
    где пользователь выполняет работу
end note

action -down-> "
{{
salt
{
{/ <&command> Действие | <b><&person> Анкета | <&cart> Корзина | Досье  }
{
 <color:Blue>iframe src="https:///service1/questionnaire?uid=...."
{ ФИО | "Иванов Иван Петрович"
Дата рождения | "01.01.1970" }
}
}
}}
" as questionnaire

note right
    Для выполнения работы
    может понадобиться анкета клиента
    Подключим ее как iframe. Таким образом
    мы не зависим от предметной области анкеты
    Ссылка может быть подана в контексте вызова
    <color blue>link ref="questionnaire" href="https:///service1/questionnaire?uid=...."</color>
end note


questionnaire -down-> "
{{
salt
{
{/ <&command> Действие | <&person> Анкета | <b><&cart> Корзина | Досье  }
{
 <color:Blue>iframe src="https:///service2/productcart?uid=...."
Автомобиль Lada Kalina 2007 г.в. 300 000 р.
Поручительство "Брокер" ООО 50 000 р.
Коробка "Найдется все" ООО 7 200 р.}
}
}}
" as productcart

note right
    Для выполнения работы
    может понадобиться подобранная корзина
    Отобразим ее в iframe
end note

@enduml

PlantUML version 1.2020.09(Sun May 10 14:51:06 SAMT 2020)
(GPL source distribution)
Java Runtime: OpenJDK Runtime Environment
JVM: OpenJDK 64-Bit Server VM
Java Version: 11.0.9+11-suse-lp152.2.6.2-x8664
Operating System: Linux
Default Encoding: UTF-8
Language: ru
Country: RU
--></g></svg>