<?xml version="1.0" encoding="UTF-8" standalone="no"?><svg xmlns="http://www.w3.org/2000/svg" xmlns:xlink="http://www.w3.org/1999/xlink" contentScriptType="application/ecmascript" contentStyleType="text/css" height="439px" preserveAspectRatio="none" style="width:423px;height:439px;" version="1.1" viewBox="0 0 423 439" width="423px" zoomAndPan="magnify"><defs/><g><path d="M11.5,10.0625 C10.67,10.0625 10,10.7325 10,11.5625 C10,12.3925 10.67,13.0625 11.5,13.0625 L12,13.0625 L12,14.0625 L11.5,14.0625 C10.67,14.0625 10,14.7325 10,15.5625 C10,16.3925 10.67,17.0625 11.5,17.0625 C12.33,17.0625 13,16.3925 13,15.5625 L13,15.0625 L14,15.0625 L14,15.5625 C14,16.3925 14.67,17.0625 15.5,17.0625 C16.33,17.0625 17,16.3925 17,15.5625 C17,14.7325 16.33,14.0625 15.5,14.0625 L15,14.0625 L15,13.0625 L15.5,13.0625 C16.33,13.0625 17,12.3925 17,11.5625 C17,10.7325 16.33,10.0625 15.5,10.0625 C14.67,10.0625 14,10.7325 14,11.5625 L14,12.0625 L13,12.0625 L13,11.5625 C13,10.7325 12.33,10.0625 11.5,10.0625 M11.5,11.0625 C11.78,11.0625 12,11.2825 12,11.5625 L12,12.0625 L11.5,12.0625 C11.22,12.0625 11,11.8425 11,11.5625 C11,11.2825 11.22,11.0625 11.5,11.0625 M15.5,11.0625 C15.78,11.0625 16,11.2825 16,11.5625 C16,11.8425 15.78,12.0625 15.5,12.0625 L15,12.0625 L15,11.5625 C15,11.2825 15.22,11.0625 15.5,11.0625 M13,13.0625 L14,13.0625 L14,14.0625 L13,14.0625 L13,13.0625 M11.5,15.0625 L12,15.0625 L12,15.5625 C12,15.8425 11.78,16.0625 11.5,16.0625 C11.22,16.0625 11,15.8425 11,15.5625 C11,15.2825 11.22,15.0625 11.5,15.0625 M15,15.0625 L15.5,15.0625 C15.78,15.0625 16,15.2825 16,15.5625 C16,15.8425 15.78,16.0625 15.5,16.0625 C15.22,16.0625 15,15.8425 15,15.5625 L15,15.0625 " fill="#000000" style="stroke: ; stroke-width: 0.0; stroke-dasharray: ;"/><text fill="#000000" font-family="sans-serif" font-size="12" font-weight="bold" lengthAdjust="spacingAndGlyphs" textLength="60" x="22" y="18.1328">Действие</text><line style="stroke: #000000; stroke-width: 1.0;" x1="7" x2="7" y1="7" y2="21.0625"/><line style="stroke: #000000; stroke-width: 1.0;" x1="7" x2="85" y1="7" y2="7"/><line style="stroke: #000000; stroke-width: 1.0;" x1="85" x2="85" y1="7" y2="21.0625"/><line style="stroke: #000000; stroke-width: 1.0;" x1="85" x2="95" y1="21.0625" y2="21.0625"/><path d="M102,10.0625 C100.895,10.0625 100,11.1815 100,12.5625 C100,13.9435 100.895,15.0625 102,15.0625 C103.105,15.0625 104,13.9435 104,12.5625 C104,11.1815 103.105,10.0625 102,10.0625 M99.906,15.0625 C98.836,15.1025 98,15.9825 98,17.0625 L98,18.0625 L106,18.0625 L106,17.0625 C106,15.9825 105.164,15.1025 104.094,15.0625 C103.554,15.6725 102.81,16.0625 102,16.0625 C101.19,16.0625 100.446,15.6725 99.906,15.0625 " fill="#000000" style="stroke: ; stroke-width: 0.0; stroke-dasharray: ;"/><text fill="#000000" font-family="sans-serif" font-size="12" lengthAdjust="spacingAndGlyphs" textLength="39" x="110" y="18.1328">Анкета</text><line style="stroke: #000000; stroke-width: 1.0;" x1="95" x2="95" y1="7" y2="21.0625"/><line style="stroke: #000000; stroke-width: 1.0;" x1="95" x2="152" y1="7" y2="7"/><line style="stroke: #000000; stroke-width: 1.0;" x1="152" x2="152" y1="7" y2="21.0625"/><line style="stroke: #000000; stroke-width: 1.0;" x1="152" x2="162" y1="21.0625" y2="21.0625"/><path d="M165.344,10.0625 A0.502,0.502 0 0 0 165.5,11.0625 L167,11.0625 L167.094,11.3125 L167.5,12.5625 L167.906,13.8125 C167.946,13.9425 168.11,14.0625 168.25,14.0625 L171.75,14.0625 C171.89,14.0625 172.054,13.9425 172.094,13.8125 L172.907,11.2815 C172.947,11.1615 172.891,11.0625 172.751,11.0625 L168.313,11.0625 L167.938,10.3435 A0.5,0.5 0 0 0 167.5,10.0625 L165.5,10.0625 A0.5,0.5 0 0 0 165.406,10.0625 A0.502,0.502 0 0 0 165.343,10.0625 M168.499,15.0625 C168.223,15.0625 167.999,15.2865 167.999,15.5625 C167.999,15.8385 168.223,16.0625 168.499,16.0625 C168.775,16.0625 168.999,15.8385 168.999,15.5625 C168.999,15.2865 168.775,15.0625 168.499,15.0625 M171.499,15.0625 C171.223,15.0625 170.999,15.2865 170.999,15.5625 C170.999,15.8385 171.223,16.0625 171.499,16.0625 C171.775,16.0625 171.999,15.8385 171.999,15.5625 C171.999,15.2865 171.775,15.0625 171.499,15.0625 " fill="#000000" style="stroke: ; stroke-width: 0.0; stroke-dasharray: ;"/><text fill="#000000" font-family="sans-serif" font-size="12" lengthAdjust="spacingAndGlyphs" textLength="48" x="177" y="18.1328">Корзина</text><line style="stroke: #000000; stroke-width: 1.0;" x1="162" x2="162" y1="7" y2="21.0625"/><line style="stroke: #000000; stroke-width: 1.0;" x1="162" x2="228" y1="7" y2="7"/><line style="stroke: #000000; stroke-width: 1.0;" x1="228" x2="228" y1="7" y2="21.0625"/><line style="stroke: #000000; stroke-width: 1.0;" x1="228" x2="238" y1="21.0625" y2="21.0625"/><text fill="#000000" font-family="sans-serif" font-size="12" lengthAdjust="spacingAndGlyphs" textLength="34" x="240" y="18.1328">Досье</text><line style="stroke: #000000; stroke-width: 1.0;" x1="238" x2="238" y1="7" y2="21.0625"/><line style="stroke: #000000; stroke-width: 1.0;" x1="238" x2="277" y1="7" y2="7"/><line style="stroke: #000000; stroke-width: 1.0;" x1="277" x2="277" y1="7" y2="21.0625"/><line style="stroke: #000000; stroke-width: 1.0;" x1="277" x2="287" y1="21.0625" y2="21.0625"/><text fill="#000000" font-family="sans-serif" font-size="12" lengthAdjust="spacingAndGlyphs" textLength="19" x="9" y="36.1953">VIN</text><text fill="#000000" font-family="sans-serif" font-size="12" lengthAdjust="spacingAndGlyphs" textLength="63" x="95" y="36.1953">123459789</text><line style="stroke: #000000; stroke-width: 1.0;" x1="93" x2="216" y1="39.125" y2="39.125"/><line style="stroke: #000000; stroke-width: 1.0;" x1="93" x2="93" y1="36.125" y2="38.125"/><line style="stroke: #000000; stroke-width: 1.0;" x1="216" x2="216" y1="36.125" y2="38.125"/><text fill="#000000" font-family="sans-serif" font-size="12" lengthAdjust="spacingAndGlyphs" textLength="81" x="9" y="54.2578">Тип проверки:</text><rect fill="#EEEEEE" height="17.0625" style="stroke: #000000; stroke-width: 1.0;" width="103" x="92" y="43.125"/><text fill="#000000" font-family="sans-serif" font-size="12" lengthAdjust="spacingAndGlyphs" textLength="76" x="94" y="56.2578">Расширенная</text><line style="stroke: #000000; stroke-width: 1.0;" x1="184" x2="184" y1="43.125" y2="60.1875"/><polygon fill="#000000" points="187,49.125,193,49.125,190,55.1875" style="stroke: #000000; stroke-width: 1.0;"/><text fill="#000000" font-family="sans-serif" font-size="12" lengthAdjust="spacingAndGlyphs" textLength="95" x="28" y="75.3203">Проверка ГИБДД</text><rect fill="none" height="10" style="stroke: #000000; stroke-width: 1.5;" width="10" x="10" y="66.2188"/><polygon fill="#000000" points="11,70.1875,14,73.1875,21,64.1875,14,71.1875" style="stroke: #000000; stroke-width: 1.5;"/><text fill="#000000" font-family="sans-serif" font-size="12" lengthAdjust="spacingAndGlyphs" textLength="111" x="28" y="91.3828">Проверка Росреестр</text><rect fill="none" height="10" style="stroke: #000000; stroke-width: 1.5;" width="10" x="10" y="82.2813"/><rect fill="#EEEEEE" height="18.0625" rx="5" ry="5" style="stroke: #000000; stroke-width: 2.5;" width="76" x="9.5" y="99.8125"/><text fill="#000000" font-family="sans-serif" font-size="12" lengthAdjust="spacingAndGlyphs" textLength="61" x="17" y="112.9453">Завершить</text><line style="stroke: #AAAAAA; stroke-width: 1.0;" x1="6" x2="416" y1="126.875" y2="126.875"/><path d="M11.5,135.4375 C10.67,135.4375 10,136.1075 10,136.9375 C10,137.7675 10.67,138.4375 11.5,138.4375 L12,138.4375 L12,139.4375 L11.5,139.4375 C10.67,139.4375 10,140.1075 10,140.9375 C10,141.7675 10.67,142.4375 11.5,142.4375 C12.33,142.4375 13,141.7675 13,140.9375 L13,140.4375 L14,140.4375 L14,140.9375 C14,141.7675 14.67,142.4375 15.5,142.4375 C16.33,142.4375 17,141.7675 17,140.9375 C17,140.1075 16.33,139.4375 15.5,139.4375 L15,139.4375 L15,138.4375 L15.5,138.4375 C16.33,138.4375 17,137.7675 17,136.9375 C17,136.1075 16.33,135.4375 15.5,135.4375 C14.67,135.4375 14,136.1075 14,136.9375 L14,137.4375 L13,137.4375 L13,136.9375 C13,136.1075 12.33,135.4375 11.5,135.4375 M11.5,136.4375 C11.78,136.4375 12,136.6575 12,136.9375 L12,137.4375 L11.5,137.4375 C11.22,137.4375 11,137.2175 11,136.9375 C11,136.6575 11.22,136.4375 11.5,136.4375 M15.5,136.4375 C15.78,136.4375 16,136.6575 16,136.9375 C16,137.2175 15.78,137.4375 15.5,137.4375 L15,137.4375 L15,136.9375 C15,136.6575 15.22,136.4375 15.5,136.4375 M13,138.4375 L14,138.4375 L14,139.4375 L13,139.4375 L13,138.4375 M11.5,140.4375 L12,140.4375 L12,140.9375 C12,141.2175 11.78,141.4375 11.5,141.4375 C11.22,141.4375 11,141.2175 11,140.9375 C11,140.6575 11.22,140.4375 11.5,140.4375 M15,140.4375 L15.5,140.4375 C15.78,140.4375 16,140.6575 16,140.9375 C16,141.2175 15.78,141.4375 15.5,141.4375 C15.22,141.4375 15,141.2175 15,140.9375 L15,140.4375 " fill="#000000" style="stroke: ; stroke-width: 0.0; stroke-dasharray: ;"/><text fill="#000000" font-family="sans-serif" font-size="12" lengthAdjust="spacingAndGlyphs" textLength="53" x="22" y="143.5078">Действие</text><line style="stroke: #000000; stroke-width: 1.0;" x1="7" x2="7" y1="132.375" y2="146.4375"/><line style="stroke: #000000; stroke-width: 1.0;" x1="7" x2="78" y1="132.375" y2="132.375"/><line style="stroke: #000000; stroke-width: 1.0;" x1="78" x2="78" y1="132.375" y2="146.4375"/><line style="stroke: #000000; stroke-width: 1.0;" x1="78" x2="88" y1="146.4375" y2="146.4375"/><path d="M95,135.4375 C93.895,135.4375 93,136.5565 93,137.9375 C93,139.3185 93.895,140.4375 95,140.4375 C96.105,140.4375 97,139.3185 97,137.9375 C97,136.5565 96.105,135.4375 95,135.4375 M92.906,140.4375 C91.836,140.4775 91,141.3575 91,142.4375 L91,143.4375 L99,143.4375 L99,142.4375 C99,141.3575 98.164,140.4775 97.094,140.4375 C96.554,141.0475 95.81,141.4375 95,141.4375 C94.19,141.4375 93.446,141.0475 92.906,140.4375 " fill="#000000" style="stroke: ; stroke-width: 0.0; stroke-dasharray: ;"/><text fill="#000000" font-family="sans-serif" font-size="12" font-weight="bold" lengthAdjust="spacingAndGlyphs" textLength="44" x="103" y="143.5078">Анкета</text><line style="stroke: #000000; stroke-width: 1.0;" x1="88" x2="88" y1="132.375" y2="146.4375"/><line style="stroke: #000000; stroke-width: 1.0;" x1="88" x2="150" y1="132.375" y2="132.375"/><line style="stroke: #000000; stroke-width: 1.0;" x1="150" x2="150" y1="132.375" y2="146.4375"/><line style="stroke: #000000; stroke-width: 1.0;" x1="150" x2="160" y1="146.4375" y2="146.4375"/><path d="M163.344,135.4375 A0.502,0.502 0 0 0 163.5,136.4375 L165,136.4375 L165.094,136.6875 L165.5,137.9375 L165.906,139.1875 C165.946,139.3175 166.11,139.4375 166.25,139.4375 L169.75,139.4375 C169.89,139.4375 170.054,139.3175 170.094,139.1875 L170.907,136.6565 C170.947,136.5365 170.891,136.4375 170.751,136.4375 L166.313,136.4375 L165.938,135.7185 A0.5,0.5 0 0 0 165.5,135.4375 L163.5,135.4375 A0.5,0.5 0 0 0 163.406,135.4375 A0.502,0.502 0 0 0 163.343,135.4375 M166.499,140.4375 C166.223,140.4375 165.999,140.6615 165.999,140.9375 C165.999,141.2135 166.223,141.4375 166.499,141.4375 C166.775,141.4375 166.999,141.2135 166.999,140.9375 C166.999,140.6615 166.775,140.4375 166.499,140.4375 M169.499,140.4375 C169.223,140.4375 168.999,140.6615 168.999,140.9375 C168.999,141.2135 169.223,141.4375 169.499,141.4375 C169.775,141.4375 169.999,141.2135 169.999,140.9375 C169.999,140.6615 169.775,140.4375 169.499,140.4375 " fill="#000000" style="stroke: ; stroke-width: 0.0; stroke-dasharray: ;"/><text fill="#000000" font-family="sans-serif" font-size="12" lengthAdjust="spacingAndGlyphs" textLength="48" x="175" y="143.5078">Корзина</text><line style="stroke: #000000; stroke-width: 1.0;" x1="160" x2="160" y1="132.375" y2="146.4375"/><line style="stroke: #000000; stroke-width: 1.0;" x1="160" x2="226" y1="132.375" y2="132.375"/><line style="stroke: #000000; stroke-width: 1.0;" x1="226" x2="226" y1="132.375" y2="146.4375"/><line style="stroke: #000000; stroke-width: 1.0;" x1="226" x2="236" y1="146.4375" y2="146.4375"/><text fill="#000000" font-family="sans-serif" font-size="12" lengthAdjust="spacingAndGlyphs" textLength="34" x="238" y="143.5078">Досье</text><line style="stroke: #000000; stroke-width: 1.0;" x1="236" x2="236" y1="132.375" y2="146.4375"/><line style="stroke: #000000; stroke-width: 1.0;" x1="236" x2="275" y1="132.375" y2="132.375"/><line style="stroke: #000000; stroke-width: 1.0;" x1="275" x2="275" y1="132.375" y2="146.4375"/><line style="stroke: #000000; stroke-width: 1.0;" x1="275" x2="285" y1="146.4375" y2="146.4375"/><text fill="#0000FF" font-family="sans-serif" font-size="12" lengthAdjust="spacingAndGlyphs" textLength="282" x="8" y="160.5703">iframe src="https:///service1/questionnaire?uid=...."</text><text fill="#000000" font-family="sans-serif" font-size="12" lengthAdjust="spacingAndGlyphs" textLength="27" x="9" y="177.6328">ФИО</text><text fill="#000000" font-family="sans-serif" font-size="12" lengthAdjust="spacingAndGlyphs" textLength="131" x="102" y="177.6328">Иванов Иван Петрович</text><line style="stroke: #000000; stroke-width: 1.0;" x1="100" x2="263" y1="180.5625" y2="180.5625"/><line style="stroke: #000000; stroke-width: 1.0;" x1="100" x2="100" y1="177.5625" y2="179.5625"/><line style="stroke: #000000; stroke-width: 1.0;" x1="263" x2="263" y1="177.5625" y2="179.5625"/><text fill="#000000" font-family="sans-serif" font-size="12" lengthAdjust="spacingAndGlyphs" textLength="88" x="9" y="195.6953">Дата рождения</text><text fill="#000000" font-family="sans-serif" font-size="12" lengthAdjust="spacingAndGlyphs" textLength="62" x="102" y="195.6953">01.01.1970</text><line style="stroke: #000000; stroke-width: 1.0;" x1="100" x2="183" y1="198.625" y2="198.625"/><line style="stroke: #000000; stroke-width: 1.0;" x1="100" x2="100" y1="195.625" y2="197.625"/><line style="stroke: #000000; stroke-width: 1.0;" x1="183" x2="183" y1="195.625" y2="197.625"/><line style="stroke: #AAAAAA; stroke-width: 1.0;" x1="6" x2="416" y1="209.125" y2="209.125"/><path d="M11.5,217.6875 C10.67,217.6875 10,218.3575 10,219.1875 C10,220.0175 10.67,220.6875 11.5,220.6875 L12,220.6875 L12,221.6875 L11.5,221.6875 C10.67,221.6875 10,222.3575 10,223.1875 C10,224.0175 10.67,224.6875 11.5,224.6875 C12.33,224.6875 13,224.0175 13,223.1875 L13,222.6875 L14,222.6875 L14,223.1875 C14,224.0175 14.67,224.6875 15.5,224.6875 C16.33,224.6875 17,224.0175 17,223.1875 C17,222.3575 16.33,221.6875 15.5,221.6875 L15,221.6875 L15,220.6875 L15.5,220.6875 C16.33,220.6875 17,220.0175 17,219.1875 C17,218.3575 16.33,217.6875 15.5,217.6875 C14.67,217.6875 14,218.3575 14,219.1875 L14,219.6875 L13,219.6875 L13,219.1875 C13,218.3575 12.33,217.6875 11.5,217.6875 M11.5,218.6875 C11.78,218.6875 12,218.9075 12,219.1875 L12,219.6875 L11.5,219.6875 C11.22,219.6875 11,219.4675 11,219.1875 C11,218.9075 11.22,218.6875 11.5,218.6875 M15.5,218.6875 C15.78,218.6875 16,218.9075 16,219.1875 C16,219.4675 15.78,219.6875 15.5,219.6875 L15,219.6875 L15,219.1875 C15,218.9075 15.22,218.6875 15.5,218.6875 M13,220.6875 L14,220.6875 L14,221.6875 L13,221.6875 L13,220.6875 M11.5,222.6875 L12,222.6875 L12,223.1875 C12,223.4675 11.78,223.6875 11.5,223.6875 C11.22,223.6875 11,223.4675 11,223.1875 C11,222.9075 11.22,222.6875 11.5,222.6875 M15,222.6875 L15.5,222.6875 C15.78,222.6875 16,222.9075 16,223.1875 C16,223.4675 15.78,223.6875 15.5,223.6875 C15.22,223.6875 15,223.4675 15,223.1875 L15,222.6875 " fill="#000000" style="stroke: ; stroke-width: 0.0; stroke-dasharray: ;"/><text fill="#000000" font-family="sans-serif" font-size="12" lengthAdjust="spacingAndGlyphs" textLength="53" x="22" y="225.7578">Действие</text><line style="stroke: #000000; stroke-width: 1.0;" x1="7" x2="7" y1="214.625" y2="228.6875"/><line style="stroke: #000000; stroke-width: 1.0;" x1="7" x2="78" y1="214.625" y2="214.625"/><line style="stroke: #000000; stroke-width: 1.0;" x1="78" x2="78" y1="214.625" y2="228.6875"/><line style="stroke: #000000; stroke-width: 1.0;" x1="78" x2="88" y1="228.6875" y2="228.6875"/><path d="M95,217.6875 C93.895,217.6875 93,218.8065 93,220.1875 C93,221.5685 93.895,222.6875 95,222.6875 C96.105,222.6875 97,221.5685 97,220.1875 C97,218.8065 96.105,217.6875 95,217.6875 M92.906,222.6875 C91.836,222.7275 91,223.6075 91,224.6875 L91,225.6875 L99,225.6875 L99,224.6875 C99,223.6075 98.164,222.7275 97.094,222.6875 C96.554,223.2975 95.81,223.6875 95,223.6875 C94.19,223.6875 93.446,223.2975 92.906,222.6875 " fill="#000000" style="stroke: ; stroke-width: 0.0; stroke-dasharray: ;"/><text fill="#000000" font-family="sans-serif" font-size="12" lengthAdjust="spacingAndGlyphs" textLength="39" x="103" y="225.7578">Анкета</text><line style="stroke: #000000; stroke-width: 1.0;" x1="88" x2="88" y1="214.625" y2="228.6875"/><line style="stroke: #000000; stroke-width: 1.0;" x1="88" x2="145" y1="214.625" y2="214.625"/><line style="stroke: #000000; stroke-width: 1.0;" x1="145" x2="145" y1="214.625" y2="228.6875"/><line style="stroke: #000000; stroke-width: 1.0;" x1="145" x2="155" y1="228.6875" y2="228.6875"/><path d="M158.344,217.6875 A0.502,0.502 0 0 0 158.5,218.6875 L160,218.6875 L160.094,218.9375 L160.5,220.1875 L160.906,221.4375 C160.946,221.5675 161.11,221.6875 161.25,221.6875 L164.75,221.6875 C164.89,221.6875 165.054,221.5675 165.094,221.4375 L165.907,218.9065 C165.947,218.7865 165.891,218.6875 165.751,218.6875 L161.313,218.6875 L160.938,217.9685 A0.5,0.5 0 0 0 160.5,217.6875 L158.5,217.6875 A0.5,0.5 0 0 0 158.406,217.6875 A0.502,0.502 0 0 0 158.343,217.6875 M161.499,222.6875 C161.223,222.6875 160.999,222.9115 160.999,223.1875 C160.999,223.4635 161.223,223.6875 161.499,223.6875 C161.775,223.6875 161.999,223.4635 161.999,223.1875 C161.999,222.9115 161.775,222.6875 161.499,222.6875 M164.499,222.6875 C164.223,222.6875 163.999,222.9115 163.999,223.1875 C163.999,223.4635 164.223,223.6875 164.499,223.6875 C164.775,223.6875 164.999,223.4635 164.999,223.1875 C164.999,222.9115 164.775,222.6875 164.499,222.6875 " fill="#000000" style="stroke: ; stroke-width: 0.0; stroke-dasharray: ;"/><text fill="#000000" font-family="sans-serif" font-size="12" font-weight="bold" lengthAdjust="spacingAndGlyphs" textLength="50" x="170" y="225.7578">Корзина</text><line style="stroke: #000000; stroke-width: 1.0;" x1="155" x2="155" y1="214.625" y2="228.6875"/><line style="stroke: #000000; stroke-width: 1.0;" x1="155" x2="223" y1="214.625" y2="214.625"/><line style="stroke: #000000; stroke-width: 1.0;" x1="223" x2="223" y1="214.625" y2="228.6875"/><line style="stroke: #000000; stroke-width: 1.0;" x1="223" x2="233" y1="228.6875" y2="228.6875"/><text fill="#000000" font-family="sans-serif" font-size="12" lengthAdjust="spacingAndGlyphs" textLength="34" x="235" y="225.7578">Досье</text><line style="stroke: #000000; stroke-width: 1.0;" x1="233" x2="233" y1="214.625" y2="228.6875"/><line style="stroke: #000000; stroke-width: 1.0;" x1="233" x2="272" y1="214.625" y2="214.625"/><line style="stroke: #000000; stroke-width: 1.0;" x1="272" x2="272" y1="214.625" y2="228.6875"/><line style="stroke: #000000; stroke-width: 1.0;" x1="272" x2="282" y1="228.6875" y2="228.6875"/><text fill="#0000FF" font-family="sans-serif" font-size="12" lengthAdjust="spacingAndGlyphs" textLength="269" x="8" y="242.8203">iframe src="https:///service2/productcart?uid=...."</text><text fill="#000000" font-family="sans-serif" font-size="12" lengthAdjust="spacingAndGlyphs" textLength="249" x="8" y="258.8828">Автомобиль Lada Kalina 2007 г.в. 300 000 р.</text><text fill="#000000" font-family="sans-serif" font-size="12" lengthAdjust="spacingAndGlyphs" textLength="222" x="8" y="274.9453">Поручительство "Брокер" ООО 50 000 р.</text><text fill="#000000" font-family="sans-serif" font-size="12" lengthAdjust="spacingAndGlyphs" textLength="211" x="8" y="291.0078">Коробка "Найдется все" ООО 7 200 р.</text><line style="stroke: #AAAAAA; stroke-width: 1.0;" x1="6" x2="416" y1="301.4375" y2="301.4375"/><path d="M11.5,310 C10.67,310 10,310.67 10,311.5 C10,312.33 10.67,313 11.5,313 L12,313 L12,314 L11.5,314 C10.67,314 10,314.67 10,315.5 C10,316.33 10.67,317 11.5,317 C12.33,317 13,316.33 13,315.5 L13,315 L14,315 L14,315.5 C14,316.33 14.67,317 15.5,317 C16.33,317 17,316.33 17,315.5 C17,314.67 16.33,314 15.5,314 L15,314 L15,313 L15.5,313 C16.33,313 17,312.33 17,311.5 C17,310.67 16.33,310 15.5,310 C14.67,310 14,310.67 14,311.5 L14,312 L13,312 L13,311.5 C13,310.67 12.33,310 11.5,310 M11.5,311 C11.78,311 12,311.22 12,311.5 L12,312 L11.5,312 C11.22,312 11,311.78 11,311.5 C11,311.22 11.22,311 11.5,311 M15.5,311 C15.78,311 16,311.22 16,311.5 C16,311.78 15.78,312 15.5,312 L15,312 L15,311.5 C15,311.22 15.22,311 15.5,311 M13,313 L14,313 L14,314 L13,314 L13,313 M11.5,315 L12,315 L12,315.5 C12,315.78 11.78,316 11.5,316 C11.22,316 11,315.78 11,315.5 C11,315.22 11.22,315 11.5,315 M15,315 L15.5,315 C15.78,315 16,315.22 16,315.5 C16,315.78 15.78,316 15.5,316 C15.22,316 15,315.78 15,315.5 L15,315 " fill="#000000" style="stroke: ; stroke-width: 0.0; stroke-dasharray: ;"/><text fill="#000000" font-family="sans-serif" font-size="12" lengthAdjust="spacingAndGlyphs" textLength="53" x="22" y="318.0703">Действие</text><line style="stroke: #000000; stroke-width: 1.0;" x1="7" x2="7" y1="306.9375" y2="321"/><line style="stroke: #000000; stroke-width: 1.0;" x1="7" x2="78" y1="306.9375" y2="306.9375"/><line style="stroke: #000000; stroke-width: 1.0;" x1="78" x2="78" y1="306.9375" y2="321"/><line style="stroke: #000000; stroke-width: 1.0;" x1="78" x2="88" y1="321" y2="321"/><path d="M95,310 C93.895,310 93,311.119 93,312.5 C93,313.881 93.895,315 95,315 C96.105,315 97,313.881 97,312.5 C97,311.119 96.105,310 95,310 M92.906,315 C91.836,315.04 91,315.92 91,317 L91,318 L99,318 L99,317 C99,315.92 98.164,315.04 97.094,315 C96.554,315.61 95.81,316 95,316 C94.19,316 93.446,315.61 92.906,315 " fill="#000000" style="stroke: ; stroke-width: 0.0; stroke-dasharray: ;"/><text fill="#000000" font-family="sans-serif" font-size="12" lengthAdjust="spacingAndGlyphs" textLength="39" x="103" y="318.0703">Анкета</text><line style="stroke: #000000; stroke-width: 1.0;" x1="88" x2="88" y1="306.9375" y2="321"/><line style="stroke: #000000; stroke-width: 1.0;" x1="88" x2="145" y1="306.9375" y2="306.9375"/><line style="stroke: #000000; stroke-width: 1.0;" x1="145" x2="145" y1="306.9375" y2="321"/><line style="stroke: #000000; stroke-width: 1.0;" x1="145" x2="155" y1="321" y2="321"/><path d="M158.344,310 A0.502,0.502 0 0 0 158.5,311 L160,311 L160.094,311.25 L160.5,312.5 L160.906,313.75 C160.946,313.88 161.11,314 161.25,314 L164.75,314 C164.89,314 165.054,313.88 165.094,313.75 L165.907,311.219 C165.947,311.099 165.891,311 165.751,311 L161.313,311 L160.938,310.281 A0.5,0.5 0 0 0 160.5,310 L158.5,310 A0.5,0.5 0 0 0 158.406,310 A0.502,0.502 0 0 0 158.343,310 M161.499,315 C161.223,315 160.999,315.224 160.999,315.5 C160.999,315.776 161.223,316 161.499,316 C161.775,316 161.999,315.776 161.999,315.5 C161.999,315.224 161.775,315 161.499,315 M164.499,315 C164.223,315 163.999,315.224 163.999,315.5 C163.999,315.776 164.223,316 164.499,316 C164.775,316 164.999,315.776 164.999,315.5 C164.999,315.224 164.775,315 164.499,315 " fill="#000000" style="stroke: ; stroke-width: 0.0; stroke-dasharray: ;"/><text fill="#000000" font-family="sans-serif" font-size="12" lengthAdjust="spacingAndGlyphs" textLength="48" x="170" y="318.0703">Корзина</text><line style="stroke: #000000; stroke-width: 1.0;" x1="155" x2="155" y1="306.9375" y2="321"/><line style="stroke: #000000; stroke-width: 1.0;" x1="155" x2="221" y1="306.9375" y2="306.9375"/><line style="stroke: #000000; stroke-width: 1.0;" x1="221" x2="221" y1="306.9375" y2="321"/><line style="stroke: #000000; stroke-width: 1.0;" x1="221" x2="231" y1="321" y2="321"/><text fill="#000000" font-family="sans-serif" font-size="12" font-weight="bold" lengthAdjust="spacingAndGlyphs" textLength="39" x="233" y="318.0703">Досье</text><line style="stroke: #000000; stroke-width: 1.0;" x1="231" x2="231" y1="306.9375" y2="321"/><line style="stroke: #000000; stroke-width: 1.0;" x1="231" x2="275" y1="306.9375" y2="306.9375"/><line style="stroke: #000000; stroke-width: 1.0;" x1="275" x2="275" y1="306.9375" y2="321"/><line style="stroke: #000000; stroke-width: 1.0;" x1="275" x2="285" y1="321" y2="321"/><text fill="#0000FF" font-family="sans-serif" font-size="12" lengthAdjust="spacingAndGlyphs" textLength="248" x="8" y="335.1328">iframe src="https:///service3/dossier?uid=...."</text><text fill="#000000" font-family="sans-serif" font-size="12" lengthAdjust="spacingAndGlyphs" textLength="56" x="8" y="351.1953">Загрузить</text><text fill="#000000" font-family="sans-serif" font-size="12" lengthAdjust="spacingAndGlyphs" textLength="36" x="262" y="352.1953">file.pdf</text><line style="stroke: #000000; stroke-width: 1.0;" x1="260" x2="335" y1="355.125" y2="355.125"/><line style="stroke: #000000; stroke-width: 1.0;" x1="260" x2="260" y1="352.125" y2="354.125"/><line style="stroke: #000000; stroke-width: 1.0;" x1="335" x2="335" y1="352.125" y2="354.125"/><rect fill="#EEEEEE" height="18.0625" rx="5" ry="5" style="stroke: #000000; stroke-width: 2.5;" width="68" x="341.5" y="343.5625"/><text fill="#000000" font-family="sans-serif" font-size="12" lengthAdjust="spacingAndGlyphs" textLength="44" x="353.5" y="356.6953">Обзор...</text><text fill="#000000" font-family="sans-serif" font-size="12" lengthAdjust="spacingAndGlyphs" text-decoration="underline" textLength="39" x="28" y="378.2578">Анкета</text><ellipse cx="15" cy="374.1563" fill="none" rx="5" ry="5" style="stroke: #000000; stroke-width: 1.5;"/><ellipse cx="15" cy="374.1563" fill="#000000" rx="2" ry="2" style="stroke: #000000; stroke-width: 1.5;"/><text fill="#000000" font-family="sans-serif" font-size="12" lengthAdjust="spacingAndGlyphs" text-decoration="underline" textLength="90" x="28" y="394.3203">Договор залога</text><ellipse cx="15" cy="390.2188" fill="none" rx="5" ry="5" style="stroke: #000000; stroke-width: 1.5;"/><text fill="#000000" font-family="sans-serif" font-size="12" lengthAdjust="spacingAndGlyphs" textLength="140" x="28" y="410.3828">Договор поручительства</text><ellipse cx="15" cy="406.2813" fill="none" rx="5" ry="5" style="stroke: #000000; stroke-width: 1.5;"/><text fill="#000000" font-family="sans-serif" font-size="12" lengthAdjust="spacingAndGlyphs" textLength="113" x="28" y="426.4453">Кредитный договор</text><ellipse cx="15" cy="422.3438" fill="none" rx="5" ry="5" style="stroke: #000000; stroke-width: 1.5;"/><line style="stroke: #000000; stroke-width: 1.0;" x1="5" x2="416" y1="5" y2="5"/><line style="stroke: #000000; stroke-width: 1.0;" x1="5" x2="416" y1="432.375" y2="432.375"/><line style="stroke: #000000; stroke-width: 1.0;" x1="5" x2="5" y1="5" y2="122.375"/><line style="stroke: #000000; stroke-width: 1.0;" x1="416" x2="416" y1="5" y2="122.375"/><line style="stroke: #000000; stroke-width: 1.0;" x1="5" x2="5" y1="296.9375" y2="304.9375"/><line style="stroke: #000000; stroke-width: 1.0;" x1="416" x2="416" y1="296.9375" y2="304.9375"/><line style="stroke: #000000; stroke-width: 1.0;" x1="5" x2="5" y1="204.625" y2="212.625"/><line style="stroke: #000000; stroke-width: 1.0;" x1="416" x2="416" y1="204.625" y2="212.625"/><line style="stroke: #000000; stroke-width: 1.0;" x1="5" x2="5" y1="122.375" y2="130.375"/><line style="stroke: #000000; stroke-width: 1.0;" x1="416" x2="416" y1="122.375" y2="130.375"/><line style="stroke: #000000; stroke-width: 1.0;" x1="5" x2="5" y1="304.9375" y2="432.375"/><line style="stroke: #000000; stroke-width: 1.0;" x1="416" x2="416" y1="304.9375" y2="432.375"/><line style="stroke: #000000; stroke-width: 1.0;" x1="5" x2="5" y1="212.625" y2="296.9375"/><line style="stroke: #000000; stroke-width: 1.0;" x1="416" x2="416" y1="212.625" y2="296.9375"/><line style="stroke: #000000; stroke-width: 1.0;" x1="5" x2="5" y1="130.375" y2="204.625"/><line style="stroke: #000000; stroke-width: 1.0;" x1="416" x2="416" y1="130.375" y2="204.625"/></g></svg>