<?xml version="1.0" encoding="UTF-8" standalone="no"?><svg xmlns="http://www.w3.org/2000/svg" xmlns:xlink="http://www.w3.org/1999/xlink" contentScriptType="application/ecmascript" contentStyleType="text/css" height="491px" preserveAspectRatio="none" style="width:370px;height:491px;" version="1.1" viewBox="0 0 370 491" width="370px" zoomAndPan="magnify"><defs><filter height="300%" id="fw4creltrbkv5" width="300%" x="-1" y="-1"><feGaussianBlur result="blurOut" stdDeviation="2.0"/><feColorMatrix in="blurOut" result="blurOut2" type="matrix" values="0 0 0 0 0 0 0 0 0 0 0 0 0 0 0 0 0 0 .4 0"/><feOffset dx="4.0" dy="4.0" in="blurOut2" result="blurOut3"/><feBlend in="SourceGraphic" in2="blurOut3" mode="normal"/></filter></defs><g><ellipse cx="72.5" cy="48.9883" fill="#000000" filter="url(#fw4creltrbkv5)" rx="10" ry="10" style="stroke: none; stroke-width: 1.0;"/><rect fill="#FEFECE" filter="url(#fw4creltrbkv5)" height="34.0625" rx="12.5" ry="12.5" style="stroke: #A80036; stroke-width: 1.5;" width="90" x="27.5" y="78.9883"/><text fill="#000000" font-family="sans-serif" font-size="12" lengthAdjust="spacingAndGlyphs" textLength="70" x="37.5" y="100.1211">startProcess</text><rect fill="#FEFECE" filter="url(#fw4creltrbkv5)" height="34.0625" rx="12.5" ry="12.5" style="stroke: #A80036; stroke-width: 1.5;" width="105" x="20" y="187.1133"/><text fill="#000000" font-family="sans-serif" font-size="12" lengthAdjust="spacingAndGlyphs" textLength="85" x="30" y="208.2461">activityCallback</text><rect fill="#FEFECE" filter="url(#fw4creltrbkv5)" height="34.0625" rx="12.5" ry="12.5" style="stroke: #A80036; stroke-width: 1.5;" width="105" x="20" y="295.2383"/><text fill="#000000" font-family="sans-serif" font-size="12" lengthAdjust="spacingAndGlyphs" textLength="85" x="30" y="316.3711">activityCallback</text><rect fill="#FEFECE" filter="url(#fw4creltrbkv5)" height="34.0625" rx="12.5" ry="12.5" style="stroke: #A80036; stroke-width: 1.5;" width="105" x="20" y="403.3633"/><text fill="#000000" font-family="sans-serif" font-size="12" lengthAdjust="spacingAndGlyphs" textLength="85" x="30" y="424.4961">activityCallback</text><ellipse cx="72.5" cy="468.4258" fill="#FFFFFF" filter="url(#fw4creltrbkv5)" rx="11" ry="11" style="stroke: #000000; stroke-width: 1.0;"/><ellipse cx="72.5" cy="468.4258" fill="#000000" rx="6" ry="6" style="stroke: #7F7F7F; stroke-width: 1.0;"/><line style="stroke: #000000; stroke-width: 2.0;" x1="15" x2="15" y1="12.8945" y2="479.4258"/><rect fill="#FAEBD7" height="466.5313" style="stroke: #FAEBD7; stroke-width: 1.0;" width="111" x="129" y="12.8945"/><rect fill="#FEFECE" filter="url(#fw4creltrbkv5)" height="34.0625" rx="12.5" ry="12.5" style="stroke: #A80036; stroke-width: 1.5;" width="88" x="141" y="133.0508"/><text fill="#000000" font-family="sans-serif" font-size="12" lengthAdjust="spacingAndGlyphs" textLength="68" x="151" y="154.1836">Сервис foo1</text><rect fill="#FEFECE" filter="url(#fw4creltrbkv5)" height="34.0625" rx="12.5" ry="12.5" style="stroke: #A80036; stroke-width: 1.5;" width="88" x="141" y="241.1758"/><text fill="#000000" font-family="sans-serif" font-size="12" lengthAdjust="spacingAndGlyphs" textLength="68" x="151" y="262.3086">Сервис foo2</text><line style="stroke: #000000; stroke-width: 2.0;" x1="129" x2="129" y1="12.8945" y2="479.4258"/><rect fill="#FAEBD7" height="466.5313" style="stroke: #FAEBD7; stroke-width: 1.0;" width="111" x="240" y="12.8945"/><rect fill="#FEFECE" filter="url(#fw4creltrbkv5)" height="34.0625" rx="12.5" ry="12.5" style="stroke: #A80036; stroke-width: 1.5;" width="88" x="252" y="349.3008"/><text fill="#000000" font-family="sans-serif" font-size="12" lengthAdjust="spacingAndGlyphs" textLength="68" x="262" y="370.4336">Сервис foo3</text><line style="stroke: #000000; stroke-width: 2.0;" x1="240" x2="240" y1="12.8945" y2="479.4258"/><line style="stroke: #000000; stroke-width: 2.0;" x1="351" x2="351" y1="12.8945" y2="479.4258"/><line style="stroke: #A80036; stroke-width: 1.5;" x1="72.5" x2="72.5" y1="58.9883" y2="78.9883"/><polygon fill="#A80036" points="68.5,68.9883,72.5,78.9883,76.5,68.9883,72.5,72.9883" style="stroke: #A80036; stroke-width: 1.0;"/><line style="stroke: #A80036; stroke-width: 1.5;" x1="72.5" x2="72.5" y1="437.4258" y2="457.4258"/><polygon fill="#A80036" points="68.5,447.4258,72.5,457.4258,76.5,447.4258,72.5,451.4258" style="stroke: #A80036; stroke-width: 1.0;"/><line style="stroke: #A80036; stroke-width: 1.5;" x1="72.5" x2="72.5" y1="113.0508" y2="118.0508"/><line style="stroke: #A80036; stroke-width: 1.5;" x1="72.5" x2="185" y1="118.0508" y2="118.0508"/><line style="stroke: #A80036; stroke-width: 1.5;" x1="185" x2="185" y1="118.0508" y2="133.0508"/><polygon fill="#A80036" points="181,123.0508,185,133.0508,189,123.0508,185,127.0508" style="stroke: #A80036; stroke-width: 1.0;"/><line style="stroke: #A80036; stroke-width: 1.5;" x1="185" x2="185" y1="167.1133" y2="172.1133"/><line style="stroke: #A80036; stroke-width: 1.5;" x1="185" x2="72.5" y1="172.1133" y2="172.1133"/><line style="stroke: #A80036; stroke-width: 1.5;" x1="72.5" x2="72.5" y1="172.1133" y2="187.1133"/><polygon fill="#A80036" points="68.5,177.1133,72.5,187.1133,76.5,177.1133,72.5,181.1133" style="stroke: #A80036; stroke-width: 1.0;"/><line style="stroke: #A80036; stroke-width: 1.5;" x1="72.5" x2="72.5" y1="221.1758" y2="226.1758"/><line style="stroke: #A80036; stroke-width: 1.5;" x1="72.5" x2="185" y1="226.1758" y2="226.1758"/><line style="stroke: #A80036; stroke-width: 1.5;" x1="185" x2="185" y1="226.1758" y2="241.1758"/><polygon fill="#A80036" points="181,231.1758,185,241.1758,189,231.1758,185,235.1758" style="stroke: #A80036; stroke-width: 1.0;"/><line style="stroke: #A80036; stroke-width: 1.5;" x1="185" x2="185" y1="275.2383" y2="280.2383"/><line style="stroke: #A80036; stroke-width: 1.5;" x1="185" x2="72.5" y1="280.2383" y2="280.2383"/><line style="stroke: #A80036; stroke-width: 1.5;" x1="72.5" x2="72.5" y1="280.2383" y2="295.2383"/><polygon fill="#A80036" points="68.5,285.2383,72.5,295.2383,76.5,285.2383,72.5,289.2383" style="stroke: #A80036; stroke-width: 1.0;"/><line style="stroke: #A80036; stroke-width: 1.5;" x1="72.5" x2="72.5" y1="329.3008" y2="334.3008"/><line style="stroke: #A80036; stroke-width: 1.5;" x1="72.5" x2="296" y1="334.3008" y2="334.3008"/><line style="stroke: #A80036; stroke-width: 1.5;" x1="296" x2="296" y1="334.3008" y2="349.3008"/><polygon fill="#A80036" points="292,339.3008,296,349.3008,300,339.3008,296,343.3008" style="stroke: #A80036; stroke-width: 1.0;"/><line style="stroke: #A80036; stroke-width: 1.5;" x1="296" x2="296" y1="383.3633" y2="388.3633"/><line style="stroke: #A80036; stroke-width: 1.5;" x1="296" x2="72.5" y1="388.3633" y2="388.3633"/><line style="stroke: #A80036; stroke-width: 1.5;" x1="72.5" x2="72.5" y1="388.3633" y2="403.3633"/><polygon fill="#A80036" points="68.5,393.3633,72.5,403.3633,76.5,393.3633,72.5,397.3633" style="stroke: #A80036; stroke-width: 1.0;"/><text fill="#000000" font-family="sans-serif" font-size="18" lengthAdjust="spacingAndGlyphs" textLength="76" x="34" y="29.5938">Workflow</text><text fill="#000000" font-family="sans-serif" font-size="18" lengthAdjust="spacingAndGlyphs" textLength="101" x="134" y="29.5938">Application1</text><text fill="#000000" font-family="sans-serif" font-size="18" lengthAdjust="spacingAndGlyphs" textLength="101" x="245" y="29.5938">Application2</text><!--MD5=[b5977b38dfed7b7a66da0154ccd8e481]
@startuml
|Workflow|
start
:startProcess;
|#AntiqueWhite|Application1|
:Сервис foo1;
|Workflow|
:activityCallback;
|Application1|
:Сервис foo2;
|Workflow|
:activityCallback;
|#AntiqueWhite|Application2|
:Сервис foo3;
|Workflow|
:activityCallback;
stop
@enduml

PlantUML version 1.2020.09(Sun May 10 14:51:06 SAMT 2020)
(GPL source distribution)
Java Runtime: OpenJDK Runtime Environment
JVM: OpenJDK 64-Bit Server VM
Java Version: 11.0.9+11-suse-lp152.2.6.2-x8664
Operating System: Linux
Default Encoding: UTF-8
Language: ru
Country: RU
--></g></svg>